<svg width="64px" height="64px" viewBox="0 0 24.00 24.00" fill="none" xmlns="http://www.w3.org/2000/svg" stroke="#fafafa" stroke-width="1.56"><g id="SVGRepo_bgCarrier" stroke-width="0"></g><g id="SVGRepo_tracerCarrier" stroke-linecap="round" stroke-linejoin="round" stroke="#CCCCCC" stroke-width="0.4800000000000001"></g><g id="SVGRepo_iconCarrier"> <path d="M5.5 9.5V6.5C5.5 5.94772 5.94772 5.5 6.5 5.5H9.5C10.0523 5.5 10.5 5.94772 10.5 6.5V9.5C10.5 10.0523 10.0523 10.5 9.5 10.5H6.5C5.94772 10.5 5.5 10.0523 5.5 9.5Z" stroke="fafafa" stroke-linecap="round" stroke-linejoin="round"></path> <path d="M13.5 9.5V6.5C13.5 5.94772 13.9477 5.5 14.5 5.5H17.5C18.0523 5.5 18.5 5.94772 18.5 6.5V9.5C18.5 10.0523 18.0523 10.5 17.5 10.5H14.5C13.9477 10.5 13.5 10.0523 13.5 9.5Z" stroke="fafafa" stroke-linecap="round" stroke-linejoin="round"></path> <path d="M13.5 17.5V14.5C13.5 13.9477 13.9477 13.5 14.5 13.5H17.5C18.0523 13.5 18.5 13.9477 18.5 14.5V17.5C18.5 18.0523 18.0523 18.5 17.5 18.5H14.5C13.9477 18.5 13.5 18.0523 13.5 17.5Z" stroke="fafafa" stroke-linecap="round" stroke-linejoin="round"></path> <path d="M5.5 17.5V14.5C5.5 13.9477 5.94772 13.5 6.5 13.5H9.5C10.0523 13.5 10.5 13.9477 10.5 14.5V17.5C10.5 18.0523 10.0523 18.5 9.5 18.5H6.5C5.94772 18.5 5.5 18.0523 5.5 17.5Z" stroke="fafafa" stroke-linecap="round" stroke-linejoin="round"></path> </g></svg>